<svg xmlns="http://www.w3.org/2000/svg" width="512" height="512" viewBox="0 0 512 512" version="1.1">
	<path d="M 200.470 9.405 C 198.604 12.253, 198.319 11.491, 213.922 45.411 C 219.465 57.461, 224 67.628, 224 68.002 C 224 68.377, 222.088 69.246, 219.750 69.934 C 204.505 74.419, 176.794 87.145, 161.171 96.834 C 148.262 104.840, 131 118.566, 131 120.823 C 131 121.338, 128.412 123.703, 125.250 126.078 C 116.766 132.448, 97.780 151.267, 90.017 161 C 38.603 225.458, 28.910 313.082, 64.961 387.500 C 95.806 451.170, 158.557 496.316, 228.842 505.404 C 296.235 514.118, 363.462 490.228, 410.555 440.831 C 439.819 410.134, 458.632 372.729, 466.548 329.500 C 468.733 317.569, 469.623 283.407, 468.088 270.357 C 463.209 228.864, 446.151 188.970, 419.832 157.500 C 411.350 147.358, 397.587 133.888, 388.250 126.590 C 384.813 123.903, 382 121.296, 382 120.796 C 382 118.299, 363.959 104.294, 349.185 95.322 C 332.319 85.080, 314.958 77.205, 294.500 70.516 L 284.500 67.247 271 38.373 C 263.575 22.493, 257.136 8.938, 256.691 8.250 C 256.077 7.301, 249.400 7, 228.964 7 L 202.046 7 200.470 9.405 M 214 18.783 C 214 19.214, 219.399 31.251, 225.998 45.533 C 232.597 59.815, 237.997 71.976, 237.998 72.559 C 238.003 75.239, 234.786 77.187, 226 79.824 C 203.942 86.444, 174.209 100.451, 159.553 111.125 C 154.625 114.714, 154.573 114.712, 177.135 111.867 C 193.391 109.818, 194.127 109.805, 196.025 111.522 C 197.111 112.506, 198 113.954, 198 114.742 C 198 115.529, 195.300 127.869, 192 142.164 C 188.700 156.459, 186 168.560, 186 169.055 C 186 169.550, 189.713 167.544, 194.250 164.597 C 211.272 153.542, 229.272 146.181, 244.446 144.071 C 254.817 142.628, 260.136 142.721, 270.466 144.522 C 288.592 147.683, 301.094 153.260, 324.673 168.706 C 326.643 169.996, 326.806 169.960, 326.408 168.315 C 326.167 167.317, 323.324 155.042, 320.090 141.038 C 313.968 114.525, 313.778 111.840, 317.926 110.523 C 319.049 110.167, 327.892 110.836, 337.578 112.010 C 347.265 113.183, 355.392 113.942, 355.638 113.695 C 356.216 113.117, 341.966 103.977, 332.692 98.978 C 321.201 92.785, 305.819 86.266, 291.132 81.364 C 283.634 78.862, 277.041 76.437, 276.479 75.975 C 275.917 75.513, 269.617 62.284, 262.479 46.576 L 249.500 18.017 231.750 18.009 C 221.988 18.004, 214 18.352, 214 18.783 M 240.269 103.925 C 233.290 105.921, 222.664 110.903, 218.648 114.063 C 214.231 117.536, 215.481 124, 220.568 124 C 221.760 124, 226.508 122.077, 231.118 119.726 C 240.905 114.736, 247.560 113, 256.895 113 C 265.174 113, 272.153 114.979, 282.177 120.171 C 291.232 124.861, 294.940 124.998, 296.443 120.697 C 297.096 118.831, 297.080 117.327, 296.397 116.197 C 294.943 113.793, 276.535 104.686, 270.174 103.224 C 262.477 101.455, 247.692 101.801, 240.269 103.925 M 163.500 124.561 C 153.600 125.840, 144.792 126.913, 143.926 126.944 C 141.718 127.023, 129.123 136.616, 118.778 146.098 C 100.992 162.401, 86.307 182.314, 74.975 205.500 C 63.297 229.392, 57.264 251.562, 54.899 279.276 C 52.031 312.881, 59.368 350.588, 74.964 382.394 C 98.597 430.591, 141.389 468.159, 191.887 485.043 C 251.601 505.008, 316.175 496.276, 368.647 461.141 C 397.953 441.517, 420.053 416.249, 436.554 383.500 C 470.783 315.566, 463.333 234.372, 417.180 172.335 C 409.171 161.570, 389.335 141.585, 378.606 133.470 L 370.713 127.500 349.606 124.854 C 337.998 123.399, 328.327 122.372, 328.115 122.573 C 327.903 122.774, 328.985 128.325, 330.520 134.909 L 333.311 146.881 341.608 151.951 C 354.623 159.904, 364.707 167.961, 375.014 178.641 C 394.703 199.043, 406.909 219.575, 414.954 245.825 C 420.437 263.717, 421.481 271.500, 421.485 294.500 C 421.488 318.070, 420.032 327.604, 413.434 347.195 C 390.865 414.213, 327.096 460, 256.327 460 C 200.527 460, 148.044 431.468, 117.449 384.500 C 86.018 336.249, 82.050 274.486, 107.033 222.393 C 120.487 194.339, 144.322 168.152, 170.987 152.125 L 179.474 147.024 182.191 135.762 C 183.685 129.568, 184.928 123.938, 184.954 123.250 C 185.010 121.734, 185.700 121.692, 163.500 124.561 M 237.350 156.985 C 227.449 159.580, 216.526 164.276, 206.764 170.134 C 194.827 177.297, 195.193 176.591, 199.358 184.439 C 202.375 190.123, 202.739 191.480, 201.800 193.540 C 199.255 199.126, 194.175 197.797, 189.969 190.446 C 188.255 187.451, 186.549 185.018, 186.177 185.041 C 185.804 185.063, 183.942 186.413, 182.038 188.041 C 178.374 191.172, 176.092 191.655, 172.934 189.965 C 170.366 188.590, 170.458 185.471, 173.438 172.859 C 174.779 167.185, 175.747 162.413, 175.589 162.255 C 174.682 161.349, 156.172 175.917, 147.961 184 C 138.647 193.168, 125.984 208.943, 126.015 211.337 C 126.024 211.976, 132.661 216.287, 140.765 220.915 C 148.869 225.543, 156.287 230, 157.250 230.820 C 160.774 233.821, 158.402 240, 153.725 240 C 152.553 240, 144.552 235.950, 135.946 231 C 127.340 226.050, 120.069 222, 119.789 222 C 118.905 222, 112.127 237.549, 109.490 245.627 C 106.342 255.270, 103.311 270.085, 102.415 280.204 L 101.732 287.908 129.448 288.204 C 155.543 288.483, 157.247 288.613, 158.582 290.441 C 160.548 293.132, 160.354 295.646, 158 298 C 156.098 299.902, 154.667 300, 128.862 300 L 101.724 300 102.423 307.709 C 103.955 324.618, 108.036 340.272, 115.222 356.806 C 118.196 363.648, 119.654 365.963, 120.730 365.550 C 121.535 365.241, 128.726 361.166, 136.711 356.494 C 144.697 351.822, 152.271 348, 153.543 348 C 158.798 348, 160.855 354.421, 156.643 357.677 C 155.347 358.680, 147.937 363.100, 140.176 367.500 C 132.416 371.900, 126.052 375.913, 126.033 376.418 C 125.985 377.742, 135.395 390.448, 141.791 397.695 C 150.176 407.197, 170.636 424, 173.821 424 C 174.316 424, 178.855 416.824, 183.908 408.052 C 189.488 398.366, 193.862 391.861, 195.048 391.485 C 198.014 390.543, 201.008 391.890, 202.052 394.636 C 203.143 397.505, 202.763 398.334, 191.590 417.500 L 184.012 430.500 191.756 434.205 C 206.699 441.355, 226.074 446.530, 242.177 447.673 L 251 448.299 251 420.673 L 251 393.046 253.615 391.333 C 255.961 389.795, 256.502 389.771, 258.865 391.097 L 261.500 392.576 261.766 420.435 L 262.032 448.295 270.266 447.711 C 280.619 446.976, 291.827 444.679, 303.910 440.814 C 314.034 437.575, 328 431.551, 328 430.422 C 328 430.041, 323.913 422.635, 318.917 413.964 C 309.233 397.153, 308.565 394.649, 313.093 392.116 C 317.833 389.465, 318.404 390.120, 332.385 414.261 L 338.617 425.021 346.862 418.981 C 358.550 410.420, 371.019 398.121, 379.728 386.565 C 386.351 377.775, 387.025 376.492, 385.577 375.432 C 384.676 374.774, 377.373 370.470, 369.347 365.867 C 360.636 360.873, 354.344 356.610, 353.735 355.291 C 352.269 352.111, 355.125 347.991, 358.773 348.025 C 360.345 348.040, 368.067 351.830, 377 356.970 C 385.525 361.875, 392.859 365.533, 393.297 365.098 C 395.087 363.320, 402.229 345.202, 404.892 335.684 C 406.460 330.083, 408.261 321.450, 408.897 316.500 C 409.532 311.550, 410.270 305.813, 410.538 303.750 L 411.024 300 384.234 300 C 354.553 300, 353 299.702, 353 294 C 353 288.303, 354.568 288, 384.076 288 L 410.706 288 410.304 282.750 C 409.595 273.497, 407.059 259.428, 404.522 250.672 C 402.089 242.276, 394.884 224.484, 393.259 222.859 C 392.799 222.399, 385.466 226.058, 376.962 230.989 C 360.430 240.574, 357.073 241.567, 354.496 237.635 C 351.631 233.262, 353.651 231.151, 369.233 222.228 C 389.505 210.619, 388.020 212.767, 381.849 203.977 C 374.526 193.547, 360.294 179.121, 348.707 170.384 C 338.642 162.794, 336.471 161.712, 337.402 164.750 C 338.678 168.914, 342 184.243, 342 185.967 C 342 188.587, 339.330 191, 336.431 191 C 335.065 191, 332.318 189.475, 330.139 187.507 L 326.273 184.014 322.886 189.679 C 318.583 196.880, 316.870 197.996, 313.241 195.967 C 309.320 193.773, 309.374 190.944, 313.477 183.607 L 317.086 177.155 312.793 174.210 C 299.702 165.230, 279.436 156.774, 267.698 155.394 L 262 154.725 262 174.362 C 262 192.667, 261.864 194.136, 260 196 C 257.593 198.407, 256.160 198.501, 253.223 196.443 C 251.052 194.923, 251 194.419, 251 174.943 L 251 155 247.750 155.055 C 245.963 155.085, 241.282 155.954, 237.350 156.985 M 291.234 223.750 C 290.140 224.713, 280.641 240.432, 270.123 258.681 L 251 291.863 251 311.731 C 251 333.025, 251.221 334, 256.045 334 C 261.443 334, 262 332.037, 262 313.002 L 262 295.661 281 262.740 C 291.450 244.633, 300 228.760, 300 227.466 C 300 225.176, 296.740 222, 294.388 222 C 293.747 222, 292.327 222.787, 291.234 223.750" stroke="none" fill="black" fill-rule="evenodd"/>
</svg>